<?xml version="1.0" encoding="utf-8"?>
<svg viewBox="232.1 232.383 35.098 35.098" width="35.098" height="35.098" xmlns="http://www.w3.org/2000/svg">
  <g>
    <path d="M 238.1 233.383 L 261.198 233.383 C 263.959 233.383 266.198 235.622 266.198 238.383 L 266.198 261.481 C 266.198 264.242 263.959 266.481 261.198 266.481 L 238.1 266.481 C 235.339 266.481 233.1 264.242 233.1 261.481 L 233.1 238.383 C 233.1 235.622 235.339 233.383 238.1 233.383 Z" style="fill: rgb(255, 255, 255);"/>
    <path d="M 238.1 232.883 L 261.198 232.883 C 262.681 232.905 264.119 233.526 265.087 234.494 C 266.055 235.462 266.676 236.9 266.698 238.383 L 266.698 261.481 C 266.676 262.964 266.055 264.402 265.087 265.37 C 264.119 266.338 262.681 266.959 261.198 266.981 L 238.1 266.981 C 236.617 266.959 235.179 266.338 234.211 265.37 C 233.243 264.402 232.622 262.964 232.6 261.481 L 232.6 238.383 C 232.622 236.9 233.243 235.462 234.211 234.494 C 235.179 233.526 236.617 232.905 238.1 232.883 Z M 234.918 235.201 C 234.076 236.043 233.578 237.104 233.6 238.383 L 233.6 261.481 C 233.578 262.76 234.076 263.821 234.918 264.663 C 235.76 265.505 236.821 266.003 238.1 265.981 L 261.198 265.981 C 262.477 266.003 263.538 265.505 264.38 264.663 C 265.222 263.821 265.72 262.76 265.698 261.481 L 265.698 238.383 C 265.72 237.104 265.222 236.043 264.38 235.201 C 263.538 234.359 262.477 233.861 261.198 233.883 L 238.1 233.883 C 236.821 233.861 235.76 234.359 234.918 235.201 Z" style=""/>
    <path d="M 239.879 250.619 C 239.466 250.619 239.149 250.502 238.929 250.269 C 238.709 250.036 238.599 249.712 238.599 249.299 L 238.599 237.499 C 238.599 237.072 238.709 236.749 238.929 236.529 C 239.149 236.309 239.466 236.199 239.879 236.199 C 240.293 236.199 240.609 236.309 240.829 236.529 C 241.049 236.749 241.159 237.072 241.159 237.499 L 241.159 242.599 L 241.199 242.599 L 246.939 236.839 C 247.153 236.626 247.366 236.466 247.579 236.359 C 247.793 236.252 248.033 236.199 248.299 236.199 C 248.686 236.199 248.963 236.299 249.129 236.499 C 249.296 236.699 249.363 236.932 249.329 237.199 C 249.296 237.466 249.166 237.712 248.939 237.939 L 243.687 243.137 L 249.219 248.759 C 249.499 249.026 249.646 249.306 249.659 249.599 C 249.673 249.892 249.583 250.136 249.389 250.329 C 249.196 250.522 248.913 250.619 248.539 250.619 C 248.219 250.619 247.963 250.552 247.769 250.419 C 247.576 250.286 247.353 250.092 247.099 249.839 L 241.199 243.939 L 241.159 243.939 L 241.159 249.299 C 241.159 249.712 241.053 250.036 240.839 250.269 C 240.626 250.502 240.306 250.619 239.879 250.619 Z M 253.217 250.619 C 252.804 250.619 252.481 250.502 252.247 250.269 C 252.014 250.036 251.897 249.699 251.897 249.259 L 251.897 237.719 C 251.897 237.279 252.014 236.942 252.247 236.709 C 252.481 236.476 252.817 236.359 253.257 236.359 L 260.237 236.359 C 260.584 236.359 260.844 236.446 261.017 236.619 C 261.191 236.792 261.277 237.039 261.277 237.359 C 261.277 237.692 261.191 237.949 261.017 238.129 C 260.844 238.309 260.584 238.399 260.237 238.399 L 254.457 238.399 L 254.457 242.379 L 259.817 242.379 C 260.151 242.379 260.407 242.466 260.587 242.639 C 260.767 242.812 260.857 243.059 260.857 243.379 C 260.857 243.712 260.767 243.969 260.587 244.149 C 260.407 244.329 260.151 244.419 259.817 244.419 L 254.457 244.419 L 254.457 249.259 C 254.457 250.166 254.044 250.619 253.217 250.619 Z M 239.385 263.791 C 239.045 263.791 238.784 263.695 238.602 263.502 C 238.42 263.31 238.329 263.043 238.329 262.702 L 238.329 253.099 C 238.329 252.747 238.423 252.48 238.61 252.299 C 238.797 252.118 239.061 252.027 239.402 252.027 L 243.378 252.027 C 244.654 252.027 245.639 252.346 246.332 252.984 C 247.025 253.622 247.371 254.513 247.371 255.657 C 247.371 256.801 247.025 257.695 246.332 258.338 C 245.639 258.981 244.654 259.303 243.378 259.303 L 240.441 259.303 L 240.441 262.702 C 240.441 263.043 240.353 263.31 240.177 263.502 C 240.001 263.695 239.737 263.791 239.385 263.791 Z M 240.441 257.637 L 243.048 257.637 C 243.796 257.637 244.363 257.469 244.748 257.133 C 245.133 256.798 245.325 256.306 245.325 255.657 C 245.325 255.008 245.133 254.518 244.748 254.188 C 244.363 253.858 243.796 253.693 243.048 253.693 L 240.441 253.693 L 240.441 257.637 Z M 250.076 263.791 C 249.768 263.791 249.532 263.703 249.367 263.527 C 249.202 263.351 249.119 263.109 249.119 262.801 L 249.119 252.885 C 249.119 252.566 249.207 252.321 249.383 252.15 C 249.559 251.98 249.801 251.895 250.109 251.895 C 250.385 251.895 250.602 251.947 250.761 252.051 C 250.921 252.156 251.066 252.335 251.198 252.588 L 255.01 259.64 L 258.821 252.588 C 258.953 252.335 259.096 252.156 259.25 252.051 C 259.404 251.947 259.619 251.895 259.894 251.895 C 260.202 251.895 260.439 251.98 260.603 252.15 C 260.769 252.321 260.851 252.566 260.851 252.885 L 260.851 262.801 C 260.851 263.109 260.772 263.351 260.612 263.527 C 260.452 263.703 260.213 263.791 259.894 263.791 C 259.586 263.791 259.35 263.703 259.184 263.527 C 259.02 263.351 258.937 263.109 258.937 262.801 L 258.937 255.824 L 255.835 261.481 C 255.725 261.668 255.61 261.806 255.488 261.894 C 255.368 261.982 255.203 262.026 254.993 262.026 C 254.785 262.026 254.614 261.979 254.482 261.885 C 254.35 261.792 254.235 261.657 254.135 261.481 L 251.033 255.862 L 251.033 262.801 C 251.033 263.109 250.954 263.351 250.794 263.527 C 250.635 263.703 250.396 263.791 250.076 263.791 Z" style="white-space: pre;"/>
    <path d="M 239.879 251.119 C 239.379 251.119 238.862 250.926 238.565 250.612 C 238.274 250.303 238.112 249.793 238.099 249.299 L 238.099 237.499 C 238.112 236.992 238.277 236.474 238.575 236.175 C 238.873 235.878 239.384 235.699 239.879 235.699 C 240.374 235.699 240.885 235.878 241.183 236.175 C 241.481 236.474 241.646 236.992 241.659 237.499 L 241.659 241.429 L 246.585 236.485 C 246.826 236.249 247.102 236.038 247.355 235.912 C 247.623 235.778 247.978 235.699 248.299 235.699 C 248.771 235.699 249.266 235.882 249.513 236.179 C 249.745 236.457 249.871 236.897 249.825 237.261 C 249.781 237.615 249.562 238.007 249.291 238.294 L 244.393 243.141 L 249.564 248.397 C 249.893 248.729 250.14 249.177 250.159 249.576 C 250.176 249.967 250.01 250.415 249.743 250.683 C 249.471 250.954 248.993 251.119 248.539 251.119 C 248.156 251.119 247.749 251.013 247.485 250.831 C 247.269 250.682 247.012 250.458 246.745 250.193 L 241.659 245.106 L 241.659 249.299 C 241.646 249.791 241.49 250.297 241.208 250.606 C 240.917 250.925 240.391 251.119 239.879 251.119 Z M 240.47 249.932 C 240.614 249.774 240.672 249.634 240.659 249.299 L 240.659 243.439 L 241.406 243.439 L 247.453 249.485 C 247.693 249.727 247.882 249.89 248.053 250.007 C 248.176 250.092 248.282 250.119 248.539 250.119 C 248.832 250.119 248.92 250.091 249.035 249.975 C 249.155 249.856 249.168 249.818 249.16 249.622 C 249.151 249.434 249.105 249.323 248.874 249.121 L 243.331 243.487 L 242.981 243.132 L 248.587 237.584 C 248.77 237.417 248.81 237.316 248.833 237.137 C 248.854 236.968 248.847 236.941 248.745 236.819 C 248.659 236.716 248.601 236.699 248.299 236.699 C 248.087 236.699 247.962 236.727 247.803 236.806 C 247.629 236.893 247.479 237.002 247.293 237.193 L 241.553 242.952 L 241.407 243.099 L 240.659 243.099 L 240.659 237.499 C 240.672 237.153 240.617 237.024 240.475 236.883 C 240.333 236.74 240.21 236.699 239.879 236.699 C 239.548 236.699 239.426 236.74 239.283 236.883 C 239.141 237.024 239.086 237.153 239.099 237.499 L 239.099 249.299 C 239.086 249.632 239.144 249.768 239.293 249.926 C 239.436 250.078 239.552 250.119 239.879 250.119 C 240.22 250.119 240.335 250.08 240.47 249.932 Z M 253.217 251.119 C 252.719 251.119 252.202 250.931 251.893 250.623 C 251.583 250.312 251.411 249.781 251.397 249.259 L 251.397 237.719 C 251.411 237.197 251.583 236.666 251.893 236.355 C 252.204 236.045 252.735 235.873 253.257 235.859 L 260.237 235.859 C 260.663 235.872 261.118 236.013 261.371 236.265 C 261.62 236.515 261.777 236.956 261.777 237.359 C 261.777 237.772 261.625 238.219 261.377 238.476 C 261.125 238.738 260.665 238.885 260.237 238.899 L 254.957 238.899 L 254.957 241.879 L 259.817 241.879 C 260.23 241.892 260.677 242.031 260.934 242.279 C 261.193 242.528 261.357 242.973 261.357 243.379 C 261.357 243.795 261.197 244.246 260.941 244.503 C 260.684 244.759 260.233 244.905 259.817 244.919 L 254.957 244.919 L 254.957 249.259 C 254.946 249.785 254.796 250.31 254.516 250.616 C 254.232 250.928 253.716 251.119 253.217 251.119 Z M 253.778 249.942 C 253.912 249.795 253.968 249.64 253.957 249.259 L 253.957 243.919 L 259.817 243.919 C 260.068 243.933 260.13 243.899 260.233 243.795 C 260.337 243.692 260.357 243.63 260.357 243.379 C 260.357 243.145 260.341 243.096 260.24 242.999 C 260.137 242.9 260.07 242.866 259.817 242.879 L 253.957 242.879 L 253.957 237.899 L 260.237 237.899 C 260.502 237.913 260.562 237.88 260.657 237.782 C 260.756 237.679 260.777 237.612 260.777 237.359 C 260.777 237.122 260.76 237.069 260.663 236.973 C 260.569 236.878 260.505 236.846 260.237 236.859 L 253.257 236.859 C 252.899 236.845 252.757 236.906 252.601 237.063 C 252.444 237.219 252.383 237.361 252.397 237.719 L 252.397 249.259 C 252.383 249.617 252.444 249.759 252.601 249.915 C 252.759 250.074 252.889 250.119 253.217 250.119 C 253.544 250.119 253.649 250.083 253.778 249.942 Z" style="fill: none;"/>
  </g>
  <path d="M 238.1 232.883 L 261.198 232.883 C 262.681 232.905 264.119 233.526 265.087 234.494 C 266.055 235.462 266.676 236.9 266.698 238.383 L 266.698 261.481 C 266.676 262.964 266.055 264.402 265.087 265.37 C 264.119 266.338 262.681 266.959 261.198 266.981 L 238.1 266.981 C 236.617 266.959 235.179 266.338 234.211 265.37 C 233.243 264.402 232.622 262.964 232.6 261.481 L 232.6 238.383 C 232.622 236.9 233.243 235.462 234.211 234.494 C 235.179 233.526 236.617 232.905 238.1 232.883 Z M 234.918 235.201 C 234.076 236.043 233.578 237.104 233.6 238.383 L 233.6 261.481 C 233.578 262.76 234.076 263.821 234.918 264.663 C 235.76 265.505 236.821 266.003 238.1 265.981 L 261.198 265.981 C 262.477 266.003 263.538 265.505 264.38 264.663 C 265.222 263.821 265.72 262.76 265.698 261.481 L 265.698 238.383 C 265.72 237.104 265.222 236.043 264.38 235.201 C 263.538 234.359 262.477 233.861 261.198 233.883 L 238.1 233.883 C 236.821 233.861 235.76 234.359 234.918 235.201 Z" style="fill: none;"/>
  <path d="M 238.1 232.383 L 261.205 232.383 C 262.784 232.426 264.407 233.107 265.441 234.14 C 266.474 235.174 267.156 236.805 267.198 238.383 L 267.198 261.488 C 267.155 263.067 266.474 264.69 265.441 265.724 C 264.407 266.757 262.776 267.439 261.198 267.481 L 238.093 267.481 C 236.514 267.438 234.891 266.757 233.857 265.724 C 232.824 264.69 232.142 263.059 232.1 261.481 L 232.1 238.376 C 232.143 236.797 232.824 235.174 233.857 234.14 C 234.891 233.107 236.522 232.425 238.1 232.383 Z M 233.1 238.39 L 233.1 261.481 C 233.1 261.646 233.108 261.808 233.124 261.969 C 233.108 261.808 233.1 261.646 233.1 261.481 L 233.1 238.392 C 233.101 237.464 233.352 236.597 233.787 235.854 C 233.351 236.597 233.101 237.463 233.1 238.39 Z M 238.107 266.481 L 261.198 266.481 C 261.363 266.481 261.525 266.473 261.686 266.457 C 261.525 266.473 261.363 266.481 261.198 266.481 L 238.109 266.481 C 237.181 266.48 236.314 266.229 235.571 265.794 C 236.314 266.23 237.18 266.48 238.107 266.481 Z M 266.198 261.474 L 266.198 238.383 C 266.198 238.218 266.19 238.056 266.174 237.895 C 266.19 238.056 266.198 238.218 266.198 238.383 L 266.198 261.472 C 266.197 262.4 265.946 263.267 265.511 264.01 C 265.947 263.267 266.197 262.401 266.198 261.474 Z M 261.191 233.383 L 238.1 233.383 C 237.935 233.383 237.773 233.391 237.612 233.407 C 237.773 233.391 237.935 233.383 238.1 233.383 L 261.189 233.383 C 262.117 233.384 262.984 233.635 263.727 234.07 C 262.984 233.634 262.118 233.384 261.191 233.383 Z M 235.272 235.555 C 234.49 236.337 234.054 237.206 234.1 238.374 L 234.1 261.481 C 234.054 262.649 234.49 263.527 235.272 264.309 C 236.054 265.091 236.923 265.527 238.091 265.481 L 261.198 265.481 C 262.366 265.527 263.244 265.091 264.026 264.309 C 264.808 263.527 265.244 262.658 265.198 261.49 L 265.198 238.383 C 265.244 237.215 264.808 236.337 264.026 235.555 C 263.244 234.773 262.375 234.337 261.207 234.383 L 238.1 234.383 C 236.932 234.337 236.054 234.773 235.272 235.555 Z" style="fill: none;"/>
  <path d="M 239.879 251.119 C 239.379 251.119 238.862 250.926 238.565 250.612 C 238.274 250.304 238.112 249.792 238.099 249.299 L 238.099 237.499 C 238.112 236.991 238.277 236.473 238.575 236.175 C 238.873 235.878 239.384 235.699 239.879 235.699 C 240.375 235.699 240.886 235.878 241.183 236.175 C 241.481 236.473 241.646 236.991 241.659 237.499 L 241.659 241.429 L 246.586 236.485 C 246.826 236.249 247.104 236.042 247.355 235.912 C 247.627 235.784 247.979 235.699 248.299 235.699 C 248.771 235.699 249.24 235.904 249.513 236.179 C 249.728 236.47 249.851 236.894 249.825 237.261 C 249.765 237.614 249.562 238.007 249.291 238.294 L 244.393 243.142 L 249.564 248.397 C 249.893 248.729 250.117 249.178 250.158 249.576 C 250.157 249.967 249.994 250.399 249.742 250.683 C 249.453 250.935 248.994 251.119 248.539 251.119 C 248.156 251.119 247.757 250.999 247.485 250.831 C 247.27 250.68 247.012 250.457 246.745 250.193 L 241.659 245.106 L 241.659 249.299 C 241.647 249.79 241.475 250.282 241.208 250.607 C 240.896 250.906 240.392 251.119 239.879 251.119 Z M 240.47 249.932 C 240.63 249.79 240.671 249.634 240.659 249.299 L 240.659 243.439 L 241.406 243.439 L 247.453 249.485 C 247.694 249.727 247.881 249.891 248.052 250.007 C 248.168 250.104 248.282 250.119 248.539 250.119 C 248.832 250.119 248.938 250.109 249.035 249.975 C 249.171 249.873 249.189 249.817 249.16 249.623 C 249.175 249.435 249.105 249.323 248.874 249.121 L 243.331 243.488 L 242.981 243.132 L 248.587 237.584 C 248.77 237.417 248.827 237.319 248.833 237.138 C 248.875 236.971 248.864 236.928 248.745 236.819 C 248.687 236.695 248.601 236.699 248.299 236.699 C 248.087 236.699 247.959 236.72 247.803 236.806 C 247.628 236.89 247.48 237.003 247.292 237.193 L 241.553 242.952 L 241.407 243.099 L 240.659 243.099 L 240.659 237.499 C 240.672 237.153 240.617 237.025 240.475 236.883 C 240.332 236.74 240.211 236.699 239.879 236.699 C 239.548 236.699 239.425 236.74 239.283 236.883 C 239.141 237.025 239.086 237.153 239.099 237.499 L 239.099 249.299 C 239.086 249.632 239.144 249.768 239.293 249.926 C 239.436 250.078 239.553 250.119 239.879 250.119 C 240.22 250.119 240.356 250.099 240.47 249.932 Z M 253.217 251.119 C 252.719 251.119 252.219 250.913 251.893 250.623 C 251.601 250.295 251.411 249.781 251.397 249.259 L 251.397 237.719 C 251.411 237.197 251.602 236.682 251.894 236.355 C 252.222 236.063 252.735 235.873 253.257 235.859 L 260.237 235.859 C 260.663 235.872 261.1 236.032 261.37 236.265 C 261.604 236.533 261.777 236.957 261.777 237.359 C 261.777 237.771 261.608 238.201 261.377 238.476 C 261.105 238.719 260.666 238.885 260.237 238.899 L 254.957 238.899 L 254.957 241.879 L 259.817 241.879 C 260.231 241.892 260.677 242.032 260.933 242.279 C 261.193 242.528 261.357 242.973 261.357 243.379 C 261.357 243.795 261.197 244.246 260.941 244.503 C 260.684 244.759 260.234 244.905 259.817 244.919 L 254.957 244.919 L 254.957 249.259 C 254.946 249.785 254.796 250.31 254.517 250.616 C 254.232 250.928 253.716 251.119 253.217 251.119 Z M 253.778 249.942 C 253.912 249.795 253.968 249.64 253.957 249.259 L 253.957 243.919 L 259.817 243.919 C 260.068 243.933 260.13 243.899 260.233 243.795 C 260.337 243.692 260.357 243.629 260.357 243.379 C 260.357 243.145 260.341 243.096 260.241 242.999 C 260.137 242.9 260.071 242.866 259.817 242.879 L 253.957 242.879 L 253.957 237.899 L 260.237 237.899 C 260.502 237.913 260.582 237.9 260.657 237.783 C 260.773 237.697 260.777 237.613 260.777 237.359 C 260.777 237.121 260.779 237.051 260.664 236.974 C 260.589 236.861 260.505 236.846 260.237 236.859 L 253.257 236.859 C 252.899 236.845 252.74 236.889 252.6 237.063 C 252.427 237.201 252.383 237.361 252.397 237.719 L 252.397 249.259 C 252.383 249.617 252.427 249.777 252.6 249.915 C 252.743 250.09 252.889 250.119 253.217 250.119 C 253.545 250.119 253.649 250.083 253.778 249.942 Z M 239.385 264.291 C 238.959 264.291 238.516 264.101 238.239 263.845 C 238.002 263.562 237.842 263.124 237.829 262.702 L 237.829 253.099 C 237.843 252.664 237.995 252.198 238.262 251.94 C 238.525 251.685 238.98 251.541 239.402 251.527 L 243.378 251.527 C 244.731 251.539 245.901 251.907 246.671 252.616 C 247.445 253.329 247.871 254.422 247.871 255.657 C 247.871 256.891 247.445 257.987 246.672 258.705 C 245.902 259.419 244.732 259.791 243.378 259.803 L 240.941 259.803 L 240.941 262.702 C 240.928 263.121 240.775 263.557 240.546 263.839 C 240.271 264.099 239.822 264.291 239.385 264.291 Z M 239.808 263.165 C 239.93 263.064 239.954 262.965 239.941 262.702 L 239.941 258.803 L 243.378 258.803 C 244.576 258.815 245.376 258.543 245.992 257.971 C 246.605 257.403 246.871 256.711 246.871 255.657 C 246.871 254.604 246.605 253.915 245.993 253.352 C 245.377 252.785 244.577 252.515 243.378 252.527 L 239.402 252.527 C 239.142 252.513 239.069 252.551 238.958 252.658 C 238.851 252.762 238.815 252.83 238.829 253.099 L 238.829 262.702 C 238.816 262.962 238.838 263.057 238.965 263.158 C 239.051 263.288 239.131 263.291 239.385 263.291 C 239.652 263.291 239.731 263.292 239.808 263.165 Z M 243.048 253.193 C 243.866 253.203 244.61 253.411 245.073 253.808 C 245.548 254.215 245.825 254.917 245.825 255.657 C 245.825 256.397 245.53 257.077 245.076 257.51 C 244.598 257.897 243.867 258.127 243.048 258.137 L 239.941 258.137 L 239.941 253.193 Z M 240.941 257.137 L 243.048 257.137 C 243.725 257.147 244.128 257.041 244.419 256.756 C 244.735 256.519 244.825 256.215 244.825 255.657 C 244.825 255.099 244.718 254.821 244.423 254.568 C 244.116 254.305 243.726 254.183 243.048 254.193 L 240.941 254.193 Z M 250.076 264.291 C 249.681 264.291 249.243 264.126 249.002 263.869 C 248.767 263.618 248.633 263.19 248.619 262.801 L 248.619 252.885 C 248.634 252.481 248.799 252.056 249.036 251.79 C 249.302 251.564 249.718 251.395 250.109 251.395 C 250.443 251.395 250.798 251.495 251.035 251.633 C 251.252 251.79 251.478 252.056 251.638 252.35 L 255.01 258.588 L 258.378 252.357 C 258.536 252.063 258.762 251.792 258.97 251.637 C 259.205 251.497 259.56 251.395 259.894 251.395 C 260.286 251.395 260.703 251.571 260.962 251.802 C 261.186 252.068 261.338 252.487 261.351 252.885 L 261.351 262.801 C 261.339 263.187 261.211 263.612 260.982 263.863 C 260.744 264.125 260.299 264.291 259.894 264.291 C 259.499 264.291 259.079 264.107 258.818 263.868 C 258.601 263.603 258.451 263.19 258.437 262.801 L 258.437 257.776 L 256.266 261.735 C 256.133 261.955 255.95 262.167 255.783 262.298 C 255.579 262.426 255.267 262.526 254.993 262.526 C 254.719 262.526 254.404 262.424 254.193 262.293 C 254.015 262.157 253.824 261.937 253.697 261.723 L 251.533 257.802 L 251.533 262.801 C 251.521 263.187 251.377 263.596 251.165 263.863 C 250.906 264.105 250.482 264.291 250.076 264.291 Z M 250.423 263.192 C 250.53 263.106 250.545 263.031 250.533 262.801 L 250.533 253.922 L 254.573 261.239 C 254.646 261.377 254.684 261.426 254.77 261.476 C 254.823 261.533 254.851 261.526 254.993 261.526 C 255.139 261.526 255.156 261.539 255.192 261.491 C 255.269 261.446 255.317 261.381 255.404 261.227 L 258.499 255.584 L 259.437 253.872 L 259.437 262.801 C 259.423 263.028 259.438 263.098 259.548 263.185 C 259.62 263.297 259.673 263.291 259.894 263.291 C 260.127 263.291 260.16 263.281 260.242 263.191 C 260.333 263.09 260.363 263.031 260.351 262.801 L 260.351 252.885 C 260.364 252.645 260.353 252.574 260.244 252.498 C 260.176 252.39 260.118 252.395 259.894 252.395 C 259.678 252.395 259.603 252.397 259.53 252.465 C 259.432 252.519 259.37 252.607 259.264 252.819 L 255.45 259.878 L 255.01 260.692 L 250.758 252.826 C 250.654 252.614 250.59 252.523 250.487 252.469 C 250.407 252.399 250.327 252.395 250.109 252.395 C 249.884 252.395 249.816 252.395 249.731 252.509 C 249.616 252.585 249.604 252.651 249.619 252.885 L 249.619 262.801 C 249.605 263.028 249.637 263.084 249.732 263.185 C 249.821 263.28 249.855 263.291 250.076 263.291 C 250.31 263.291 250.363 263.301 250.423 263.192 Z" style="fill: none;"/>
  <path d="M 239.879 251.619 C 239.292 251.619 238.592 251.331 238.201 250.955 C 237.854 250.55 237.624 249.862 237.599 249.299 L 237.599 237.486 C 237.624 236.91 237.863 236.22 238.222 235.821 C 238.614 235.465 239.301 235.199 239.879 235.199 C 240.457 235.199 241.145 235.466 241.537 235.822 C 241.896 236.222 242.134 236.923 242.159 237.499 L 242.159 240.219 L 246.235 236.128 C 246.499 235.872 246.838 235.616 247.132 235.465 C 247.457 235.31 247.924 235.199 248.299 235.199 C 248.858 235.199 249.545 235.488 249.897 235.859 C 250.177 236.228 250.359 236.859 250.321 237.323 C 250.247 237.768 249.95 238.313 249.643 238.649 L 245.099 243.146 L 249.919 248.045 C 250.289 248.432 250.609 249.046 250.659 249.554 C 250.66 250.043 250.42 250.68 250.096 251.037 C 249.729 251.367 249.075 251.619 248.539 251.619 C 248.093 251.619 247.544 251.461 247.201 251.243 C 246.963 251.076 246.67 250.823 246.391 250.547 L 242.159 246.313 L 242.159 249.312 C 242.135 249.871 241.914 250.539 241.577 250.943 C 241.188 251.328 240.477 251.619 239.879 251.619 Z M 241.159 249.286 L 241.159 245.106 L 241.159 243.939 L 241.159 249.28 C 241.153 249.718 241.031 250.035 240.842 250.266 C 241.067 250.052 241.157 249.709 241.159 249.286 Z M 247.098 249.839 C 247.353 250.093 247.575 250.288 247.769 250.419 C 247.954 250.565 248.219 250.619 248.539 250.619 C 248.911 250.619 249.212 250.541 249.39 250.329 C 249.599 250.151 249.692 249.892 249.66 249.599 C 249.671 249.309 249.497 249.026 249.209 248.749 L 244.931 244.401 L 249.203 248.745 C 249.501 249.039 249.632 249.33 249.66 249.602 C 249.654 249.889 249.568 250.113 249.389 250.328 C 249.172 250.506 248.908 250.619 248.539 250.619 C 248.22 250.619 247.972 250.54 247.769 250.418 C 247.576 250.284 247.354 250.094 247.099 249.839 L 242.164 244.904 Z M 248.299 236.199 C 248.032 236.199 247.789 236.246 247.579 236.359 C 247.366 236.46 247.155 236.624 246.939 236.838 L 241.73 242.066 L 246.935 236.844 C 247.153 236.625 247.371 236.467 247.581 236.358 C 247.796 236.259 248.032 236.199 248.299 236.199 C 248.671 236.199 248.921 236.316 249.128 236.498 C 248.987 236.277 248.684 236.199 248.299 236.199 Z M 240.829 236.528 C 240.625 236.291 240.291 236.199 239.879 236.199 C 239.467 236.199 239.133 236.29 238.929 236.528 C 238.692 236.727 238.6 237.074 238.599 237.512 L 238.599 249.299 C 238.6 249.724 238.694 250.056 238.929 250.269 C 239.131 250.52 239.466 250.619 239.879 250.619 C 240.303 250.619 240.644 250.522 240.837 250.271 C 240.598 250.486 240.299 250.619 239.879 250.619 C 239.469 250.619 239.171 250.485 238.929 250.269 C 238.732 250.037 238.606 249.74 238.599 249.299 L 238.599 237.518 C 238.606 237.064 238.735 236.749 238.93 236.529 C 239.17 236.326 239.468 236.199 239.879 236.199 C 240.289 236.199 240.589 236.326 240.829 236.53 C 241.024 236.75 241.152 237.046 241.159 237.499 C 241.158 237.061 241.066 236.727 240.829 236.528 Z M 241.052 242.747 L 241.159 242.639 L 241.159 242.639 Z M 243.337 242.781 L 243.687 243.136 L 243.687 243.136 Z M 240.101 249.595 C 240.198 249.51 240.191 249.548 240.159 249.318 L 240.159 243.599 L 241.615 243.599 L 241.907 243.305 L 241.943 243.269 L 241.613 242.939 L 240.159 242.939 L 240.159 237.499 C 240.192 237.26 240.211 237.299 240.123 237.238 C 240.079 237.156 240.131 237.199 239.879 237.199 C 239.628 237.199 239.682 237.154 239.637 237.237 C 239.548 237.298 239.566 237.242 239.599 237.48 L 239.599 249.299 C 239.566 249.524 239.556 249.498 239.657 249.583 C 239.701 249.671 239.635 249.619 239.879 249.619 C 240.14 249.619 240.07 249.675 240.101 249.595 Z M 241.943 243.269 L 247.807 249.131 C 248.032 249.36 248.186 249.494 248.335 249.594 C 248.378 249.643 248.344 249.619 248.539 249.619 C 248.604 249.619 248.641 249.624 248.662 249.63 C 248.674 249.548 248.701 249.601 248.545 249.497 L 242.975 243.838 L 242.275 243.128 L 248.235 237.229 C 248.256 237.216 248.272 237.206 248.285 237.199 C 248.141 237.199 248.125 237.197 248.026 237.254 C 247.887 237.319 247.805 237.379 247.651 237.542 Z M 248.943 237.935 C 249.175 237.7 249.314 237.463 249.329 237.202 C 249.29 237.44 249.186 237.677 248.943 237.935 Z M 249.329 237.198 C 249.382 236.935 249.313 236.686 249.13 236.5 C 249.281 236.718 249.343 236.937 249.329 237.198 Z M 253.217 251.619 C 252.634 251.619 251.939 251.342 251.539 250.976 C 251.168 250.566 250.923 249.851 250.897 249.259 L 250.897 237.706 C 250.923 237.113 251.169 236.411 251.54 236.001 C 251.95 235.63 252.665 235.385 253.257 235.359 L 260.252 235.359 C 260.745 235.383 261.37 235.598 261.725 235.912 C 262.033 236.255 262.277 236.872 262.277 237.359 C 262.277 237.852 262.042 238.473 261.737 238.823 C 261.381 239.15 260.733 239.373 260.237 239.399 L 255.457 239.399 L 255.457 241.379 L 259.833 241.379 C 260.312 241.403 260.924 241.612 261.281 241.919 C 261.601 242.262 261.857 242.887 261.857 243.379 C 261.857 243.879 261.608 244.507 261.294 244.857 C 260.937 245.174 260.302 245.393 259.817 245.419 L 255.457 245.419 L 255.457 249.269 C 255.436 249.859 255.221 250.547 254.885 250.953 C 254.503 251.331 253.803 251.619 253.217 251.619 Z M 254.457 249.249 L 254.457 244.919 L 254.457 244.419 L 254.457 249.245 C 254.453 249.716 254.332 250.047 254.149 250.277 C 254.371 250.071 254.456 249.709 254.457 249.249 Z M 260.588 244.149 C 260.784 243.985 260.857 243.711 260.857 243.379 C 260.857 243.059 260.785 242.795 260.587 242.639 C 260.43 242.45 260.148 242.381 259.801 242.379 L 254.957 242.379 L 254.457 242.379 L 254.457 242.379 L 259.791 242.38 C 260.17 242.393 260.423 242.497 260.586 242.638 C 260.752 242.838 260.857 243.067 260.857 243.379 C 260.857 243.707 260.751 243.945 260.586 244.149 C 260.425 244.295 260.202 244.403 259.817 244.419 C 260.164 244.417 260.43 244.344 260.588 244.149 Z M 261.017 238.129 C 261.208 237.966 261.277 237.692 261.277 237.359 C 261.277 237.04 261.208 236.776 261.018 236.619 C 260.867 236.429 260.581 236.361 260.222 236.359 L 253.257 236.359 C 252.805 236.361 252.458 236.459 252.247 236.709 C 251.998 236.92 251.899 237.281 251.897 237.732 L 251.897 249.259 C 251.899 249.711 251.997 250.058 252.247 250.27 C 252.465 250.519 252.804 250.619 253.217 250.619 C 253.628 250.619 253.958 250.526 254.145 250.282 C 253.913 250.489 253.624 250.619 253.217 250.619 C 252.807 250.619 252.501 250.487 252.247 250.268 C 252.038 250.034 251.903 249.725 251.897 249.259 L 251.897 237.739 C 251.903 237.272 252.038 236.944 252.248 236.71 C 252.482 236.5 252.791 236.365 253.257 236.359 L 260.213 236.36 C 260.605 236.373 260.856 236.477 261.016 236.619 C 261.174 236.816 261.277 237.046 261.277 237.359 C 261.277 237.687 261.173 237.929 261.016 238.13 C 260.862 238.273 260.636 238.382 260.237 238.399 C 260.597 238.397 260.869 238.327 261.017 238.129 Z M 253.409 249.605 C 253.492 249.542 253.483 249.562 253.457 249.273 L 253.457 243.919 L 253.457 243.419 L 259.817 243.419 C 259.834 243.426 259.847 243.431 259.857 243.436 C 259.857 243.421 259.857 243.403 259.857 243.379 C 259.857 243.377 259.857 243.376 259.857 243.374 C 259.853 243.375 259.848 243.377 259.843 243.378 L 253.957 243.379 L 253.457 243.379 L 253.457 237.399 L 260.237 237.399 C 260.255 237.405 260.269 237.41 260.28 237.414 C 260.278 237.4 260.277 237.382 260.277 237.359 C 260.277 237.357 260.277 237.356 260.277 237.354 C 260.272 237.355 260.267 237.357 260.261 237.358 L 253.257 237.359 C 253.007 237.325 253.033 237.312 252.956 237.415 C 252.852 237.493 252.863 237.45 252.897 237.699 L 252.897 249.259 C 252.863 249.509 252.85 249.483 252.953 249.56 C 253.016 249.659 252.971 249.619 253.217 249.619 C 253.463 249.619 253.384 249.678 253.409 249.605 Z" style="fill: none;"/>
</svg>