<?xml version="1.0" standalone="no"?>
<!DOCTYPE svg PUBLIC "-//W3C//DTD SVG 20010904//EN"
 "http://www.w3.org/TR/2001/REC-SVG-20010904/DTD/svg10.dtd">
<svg version="1.0" xmlns="http://www.w3.org/2000/svg"
 width="143.000000pt" height="143.000000pt" viewBox="0 0 143.000000 143.000000"
 preserveAspectRatio="xMidYMid meet">
<metadata>
Created by potrace 1.14, written by Peter Selinger 2001-2017
</metadata>
<g transform="translate(0.000000,143.000000) scale(0.100000,-0.100000)"
fill="#000000" stroke="none">
<path d="M608 1356 c-39 -18 -477 -355 -494 -381 -10 -15 -13 -35 -10 -57 7
-42 12 -81 26 -193 6 -49 13 -101 15 -115 2 -14 6 -47 10 -75 3 -27 8 -66 10
-85 3 -19 7 -53 10 -75 3 -23 14 -48 27 -61 34 -32 558 -246 592 -242 39 4
514 365 522 396 4 13 4 25 2 27 -4 4 -85 -9 -243 -39 -23 -5 -79 -14 -115 -20
-20 -3 -137 -25 -222 -41 -17 -4 -18 17 -18 326 l0 331 38 -6 c20 -3 48 -8 62
-11 14 -3 51 -9 82 -15 32 -6 70 -13 85 -15 35 -7 188 -34 227 -41 16 -3 34
-8 39 -11 16 -10 -3 130 -21 155 -12 16 -100 58 -277 133 -301 127 -313 130
-347 115z m80 -637 l0 -330 -42 6 c-82 13 -75 -21 -75 330 l0 314 27 4 c15 2
41 5 59 6 l31 1 0 -331z m-151 6 l0 -305 -26 0 c-14 0 -35 3 -47 6 -20 5 -21
10 -20 297 l1 292 30 6 c67 15 62 40 62 -296z m-132 -2 l0 -278 -32 -1 c-17
-1 -37 2 -43 6 -14 9 -18 526 -4 540 8 8 63 18 74 14 3 -1 5 -128 5 -281z"/>
<path d="M770 721 c0 -249 1 -261 19 -261 18 0 19 12 17 257 -1 237 -2 258
-18 261 -17 3 -18 -14 -18 -257z"/>
<path d="M865 723 c0 -228 1 -248 18 -251 16 -3 17 14 17 247 0 233 -1 251
-18 251 -16 0 -17 -18 -17 -247z"/>
<path d="M950 726 c0 -204 2 -236 15 -236 13 0 15 30 13 232 -2 174 -6 232
-15 236 -10 3 -13 -48 -13 -232z"/>
<path d="M1029 940 c-1 -8 -2 -111 -3 -227 -1 -165 2 -213 11 -213 7 0 13 12
13 28 4 200 -1 407 -10 416 -7 7 -10 6 -11 -4z"/>
<path d="M1095 724 c0 -166 3 -214 12 -214 19 0 19 416 0 423 -10 4 -12 -41
-12 -209z"/>
<path d="M1160 726 c0 -150 3 -207 11 -204 16 5 16 385 0 401 -8 8 -11 -45
-11 -197z"/>
<path d="M1219 905 c-1 -24 -1 -342 0 -368 1 -10 5 -16 10 -13 11 7 11 370 0
388 -7 10 -9 8 -10 -7z"/>
<path d="M1271 698 c-1 -100 3 -158 9 -158 12 0 12 204 1 270 -6 32 -9 0 -10
-112z"/>
</g>
</svg>
